<svg xmlns="http://www.w3.org/2000/svg" width="48" height="56" fill="none"><path fill="#42425E" d="M15.793 17.253V12.51c0-1.961-1.577-3.557-3.515-3.557-1.94 0-3.516 1.596-3.516 3.557v4.743c0 1.96 1.577 3.556 3.515 3.556 1.94 0 3.516-1.595 3.516-3.556Zm-4.687 0V12.51a1.18 1.18 0 0 1 1.171-1.186 1.18 1.18 0 0 1 1.173 1.186v4.743a1.18 1.18 0 0 1-1.172 1.185 1.18 1.18 0 0 1-1.172-1.185ZM5.168 20.81a1.18 1.18 0 0 0 1.172-1.186v-9.485a1.18 1.18 0 0 0-1.172-1.186 1.18 1.18 0 0 0-1.172 1.186v9.485c0 .655.525 1.185 1.172 1.185Zm29.377-3.557V12.51c0-1.961-1.577-3.557-3.516-3.557-1.938 0-3.515 1.596-3.515 3.557v4.743c0 1.96 1.577 3.556 3.515 3.556 1.94 0 3.516-1.595 3.516-3.556Zm-4.687 0V12.51a1.18 1.18 0 0 1 1.171-1.186 1.18 1.18 0 0 1 1.172 1.186v4.743a1.18 1.18 0 0 1-1.172 1.185 1.18 1.18 0 0 1-1.171-1.185Zm-9.373 2.371v-9.485a1.18 1.18 0 0 0-1.172-1.186c-.648 0-1.172.531-1.172 1.186v9.485c0 .655.524 1.185 1.172 1.185.647 0 1.172-.53 1.172-1.185Zm4.685 0v-9.485a1.18 1.18 0 0 0-1.172-1.186 1.18 1.18 0 0 0-1.172 1.186v9.485c0 .655.525 1.185 1.172 1.185.647 0 1.172-.53 1.172-1.185Zm14.063 0v-9.485a1.18 1.18 0 0 0-1.172-1.186c-.648 0-1.172.531-1.172 1.186v9.485c0 .655.524 1.185 1.172 1.185.647 0 1.172-.53 1.172-1.185Zm3.593-10.671a1.18 1.18 0 0 0-1.172 1.186v9.485c0 .655.525 1.185 1.172 1.185.648 0 1.172-.53 1.172-1.185v-9.485c0-.655-.524-1.186-1.172-1.186ZM20.477 30.368v-4.742c0-1.962-1.577-3.557-3.516-3.557-1.938 0-3.516 1.596-3.516 3.557v4.742c0 1.961 1.578 3.557 3.516 3.557 1.939 0 3.516-1.596 3.516-3.557Zm-4.688 0v-4.742a1.18 1.18 0 0 1 1.172-1.186 1.18 1.18 0 0 1 1.172 1.186v4.742a1.18 1.18 0 0 1-1.172 1.186 1.18 1.18 0 0 1-1.172-1.186ZM5.168 33.925c.647 0 1.172-.53 1.172-1.186v-9.484a1.18 1.18 0 0 0-1.172-1.186c-.647 0-1.172.53-1.172 1.186v9.484a1.18 1.18 0 0 0 1.172 1.186Zm34.065-3.557v-4.742c0-1.962-1.577-3.557-3.516-3.557s-3.516 1.596-3.516 3.557v4.742c0 1.961 1.577 3.557 3.516 3.557s3.516-1.596 3.516-3.557Zm-4.688 0v-4.742a1.18 1.18 0 0 1 1.172-1.186 1.18 1.18 0 0 1 1.172 1.186v4.742a1.18 1.18 0 0 1-1.172 1.186 1.18 1.18 0 0 1-1.172-1.186ZM11.106 32.74v-9.486c0-.654-.525-1.185-1.172-1.185-.648 0-1.172.53-1.172 1.186v9.484c0 .655.524 1.186 1.172 1.186.647 0 1.172-.53 1.172-1.186Zm14.064 0v-9.486c0-.654-.525-1.185-1.172-1.185-.647 0-1.172.53-1.172 1.186v9.484a1.18 1.18 0 0 0 1.172 1.186c.647 0 1.172-.53 1.172-1.186Zm4.688 0v-9.486c0-.654-.525-1.185-1.172-1.185-.648 0-1.172.53-1.172 1.186v9.484c0 .655.524 1.186 1.172 1.186.647 0 1.172-.53 1.172-1.186Zm12.968-10.671c-.647 0-1.172.53-1.172 1.186v9.484a1.18 1.18 0 0 0 1.172 1.186c.648 0 1.172-.53 1.172-1.186v-9.484c0-.655-.524-1.186-1.172-1.186ZM11.028 43.495v-4.742c0-1.962-1.577-3.557-3.516-3.557s-3.516 1.595-3.516 3.557v4.742c0 1.961 1.577 3.557 3.516 3.557s3.516-1.596 3.516-3.557Zm-4.688 0v-4.742a1.18 1.18 0 0 1 1.172-1.186 1.18 1.18 0 0 1 1.172 1.186v4.742a1.18 1.18 0 0 1-1.172 1.186 1.18 1.18 0 0 1-1.172-1.186Zm12.973 3.557c.647 0 1.172-.53 1.172-1.186v-9.485c0-.654-.525-1.185-1.172-1.185-.648 0-1.172.53-1.172 1.185v9.485c0 .655.524 1.186 1.172 1.186Zm10.545-3.557v-4.742c0-1.962-1.577-3.557-3.516-3.557s-3.516 1.595-3.516 3.557v4.742c0 1.961 1.577 3.557 3.516 3.557s3.516-1.596 3.516-3.557Zm-4.688 0v-4.742a1.18 1.18 0 0 1 1.172-1.186 1.18 1.18 0 0 1 1.172 1.186v4.742a1.18 1.18 0 0 1-1.172 1.186 1.18 1.18 0 0 1-1.172-1.186Zm-9.455 2.371v-9.485c0-.654-.525-1.185-1.172-1.185-.647 0-1.172.53-1.172 1.185v9.485a1.18 1.18 0 0 0 1.172 1.186c.647 0 1.172-.53 1.172-1.186Zm18.391 0v-9.485c0-.654-.525-1.185-1.172-1.185-.648 0-1.172.53-1.172 1.185v9.485c0 .655.524 1.186 1.172 1.186.647 0 1.172-.53 1.172-1.186Zm5.127 0v-9.485c0-.654-.525-1.185-1.172-1.185-.648 0-1.172.53-1.172 1.185v9.485c0 .655.524 1.186 1.172 1.186.647 0 1.172-.53 1.172-1.186Zm3.593-10.67c-.647 0-1.172.53-1.172 1.185v9.485a1.18 1.18 0 0 0 1.172 1.186c.648 0 1.172-.53 1.172-1.186v-9.485c0-.654-.524-1.185-1.172-1.185Z"/></svg>